# xmcd
#
# Track frame offsets: 
#        150
#        13512
#        29388
#        43426
#        58526
#        74716
#        98226
#        115580
#        129419
#        143807
#        168592
#        180993
#        190399
#
# Disc length: 2731 seconds
#
# Revision: 0
# Processed by: cddbd v1.5.2PL0 Copyright (c) Steve Scherf et al.
# Submitted via: ExactAudioCopyFreeDBPlugin 1.0
#
DISCID=b80aa90d
DTITLE=Tyler Childers - Bottles and Bibles
DYEAR=2011
DGENRE=Country
TTITLE0=Hard Times
TTITLE1=Junction City Queen
TTITLE2=We've Had Our Fun
TTITLE3=Coal
TTITLE4=Good Thing Windin' Down
TTITLE5=Play Me A Hank Song
TTITLE6=If Whiskey Could Talk
TTITLE7=The Harvest
TTITLE8=Detroit
TTITLE9=Bottles And Bibles
TTITLE10=The Gospel (According To Fishermen)
TTITLE11=Silence
TTITLE12=Long Hard Road
EXTD=
EXTT0=
EXTT1=
EXTT2=
EXTT3=
EXTT4=
EXTT5=
EXTT6=
EXTT7=
EXTT8=
EXTT9=
EXTT10=
EXTT11=
EXTT12=
PLAYORDER=
